<?xml version="1.0" standalone="no"?>
<!DOCTYPE svg PUBLIC "-//W3C//DTD SVG 20010904//EN"
 "http://www.w3.org/TR/2001/REC-SVG-20010904/DTD/svg10.dtd">
<svg version="1.0" xmlns="http://www.w3.org/2000/svg"
 width="115.000000pt" height="115.000000pt" viewBox="0 0 115.000000 115.000000"
 preserveAspectRatio="xMidYMid meet">
<metadata>
Created by potrace 1.11, written by Peter Selinger 2001-2013
</metadata>
<g transform="translate(0.000000,115.000000) scale(0.100000,-0.100000)"
fill="#000000" stroke="none">
<path d="M695 1071 c-27 -10 -57 -21 -66 -25 -9 -4 -21 -1 -29 8 -11 14 -21
11 -89 -24 -169 -88 -295 -236 -351 -410 -29 -92 -36 -236 -16 -330 14 -64 71
-197 96 -224 8 -8 209 -11 245 -3 75 17 120 34 195 70 69 33 101 57 171 127
124 124 181 252 193 428 4 69 3 72 -18 72 -21 0 -22 4 -18 54 16 209 -125 324
-313 257z"/>
</g>
</svg>
